<svg xmlns="http://www.w3.org/2000/svg" width="1070.771" height="663.334" viewBox="0 0 1070.771 663.334">
  <g id="Group_433" data-name="Group 433" transform="translate(-47.234 -1480)">
    <path id="Path_313" data-name="Path 313" d="M961.951,208.639c.012-.309-.013-.583-.013-.882-.012-.541-.031-1.069-.05-1.578-.024-.341-.024-.706-.057-1.033-.666-10.722-4.108-13-16.228-14.726-15.961-2.265-24.139-2.988-40.054-5.709-6.272-1.07-17.189-1.865-21.821-2.767q-6.838-.426-13.673-.848c-14.677-.5-19.245-.841-40.53-1.159l-26.037.356c-27.531,1-43.563,2.017-66.494,3.339l-9.141.546c-10.9,1.267-14.244,1.182-26.328,2.675l-4.387.522q-4.981,1.067-9.961,2.152c-1.136.121-2.266.238-3.4.364-42.223,4.657-83,17.121-122.279,36.468l-.943.427c-.126.079-.249.143-.373.22-.614.3-1.228.6-1.84.9-27.863,14.016-55.663,14.9-82.961-2.564l-15.908-7.135c-21.684-7.332-42.446-15.814-64.442-20.266-18.77-3.8-37.494-7.991-56.237-12.009l-4.387-.521c-12.085-1.5-15.427-1.408-26.33-2.675q-4.571-.271-9.14-.546c-22.929-1.319-38.96-2.344-66.494-3.338q-13.017-.18-26.035-.354c-21.284.312-25.855.653-40.533,1.157q-6.834.422-13.675.85c-4.63.9-15.546,1.7-21.818,2.766-15.913,2.724-24.093,3.443-40.052,5.709-14.144,2.01-16.479,4.778-16.358,20.851,0,.068,0,.131,0,.2,0,.409,0,.784.006,1.208.152,10.037.581,20.068,1.019,30.1-.025.127-.04.258-.066.386-1.422,6.127-.9,10.886.754,14.845a6.352,6.352,0,0,0,1.545,3.154c.072.059.131.124.2.182a36.737,36.737,0,0,0,6.757,7.5c.455.4.888.818,1.322,1.232,9.788,13.54,12.469,31.2,15.226,48.971,4.307,27.8,9.456,55.416,18.414,81.706,10.639,31.218,28.4,53.413,56.038,63.194q2.328.825,4.653,1.657c2.3,1.129,4.651,2.21,7.073,3.205,11.415,4.693,22.162,6.4,34.157,8.7,4.7,1.022,7.981,1.662,11.781,2.287,4.111.74,7.454,1.278,11.433,2.027,1.742.29,4.755.688,6.134.892,5.168.692,7.806.986,12.6,1.432a110.4,110.4,0,0,0,13.482.971c1.99-.061,3.927-.1,5.872-.14,7.528.448,14.552.783,23.026,1.138,11.744-.117,22.463-.112,34.652-1.188,2.75-.142,5.514-.575,7.806-.782,2.147-.112,6.343-.91,8.628-1.28,13.582-3.1,17.34-3.857,29.358-7.5,23.495-7.116,45.53-36.873,58.108-62.308a540.887,540.887,0,0,0,36.164-93.681c4.035-14.506,12.071-24.968,22.015-30.471,22.837-9.282,45.824,3.67,53.679,31.914a532.717,532.717,0,0,0,36.167,93.682c13.076,26.251,31.578,53.748,58.105,62.306,11.952,3.856,15.778,4.4,29.359,7.494,2.288.37,6.481,1.171,8.631,1.283,2.29.2,5.054.637,7.806.78,12.187,1.078,22.906,1.068,34.649,1.185,14.818-.619,25.188-1.166,41.609-2.395,6.208-.672,15.192-1.547,21.479-2.5a261.238,261.238,0,0,0,27.285-5.046c13.59-2.619,26.669-7.558,39.845-12.219,27.634-9.784,45.4-31.973,56.037-63.2,8.956-26.288,14.105-53.9,18.414-81.7,3.412-22,6.695-43.83,23.5-57.887a6.443,6.443,0,0,0,1.567-3.227l.033-.1c.042-1.055.092-2.117.135-3.175,1.487-3.828,1.915-8.406.6-14.213.4-9.254.778-18.509.918-27.768C961.97,211.221,961.97,209.9,961.951,208.639Zm-515.557,127.1c-.06,3.467-.592,6.751-3.537,9.1-.069,8.292-3.745,15.638-6.628,23.055-8.643,22.247-20.765,42.546-34.971,61.761-13.688,18.512-31.859,28.585-54.21,32.121a300.473,300.473,0,0,1-33.127,3.5,16.682,16.682,0,0,0,5.011,1.363,16.682,16.682,0,0,1-5.011-1.363c-18.163-.075-36.349.333-54.452-1.431-11.89-1.159-23.805-2.314-35.494-5.019-8.737-2.02-17.5-3.921-26.254-5.874-23.051-6.486-36.293-23.74-47.071-43.413-23.257-42.443-32.387-88.177-31.039-136.259.569-20.3,7.8-37.423,23.906-50.395,7.468-6.016,16.568-8.175,25.4-10.663,16.477-4.64,33.6-5.406,50.539-6.784,36.538-2.974,73.084-2.061,109.568,1.388,8.473.8,17.074,1.5,25.305,3.174,17.556,3.576,35.419,6.4,52.335,12.387,15.109,5.35,29.337,12.909,37.923,27.475,4.049,6.869,5.459,14.769,6.431,22.638C453.65,293.872,451.616,314.923,446.394,335.737Zm466.79-36.6a251.946,251.946,0,0,1-11.557,62.494c-7.755,24.448-18.024,47.568-33.791,67.992a56.486,56.486,0,0,1-19.947,16.5c-16.248,6.822-33.348,10.436-50.646,13.147-11.568,1.808-23.18,3.755-34.844,4.414-14.612.824-29.3.393-43.949.5-14.829-.4-29.313-2.895-43.7-6.468-16.745-4.154-29.468-13.878-39.87-27.182a253.234,253.234,0,0,1-33.812-57.717c-3.857-9.133-6.536-18.766-9.746-28.171-2.51-2.851.2-7.389-3.211-9.946-1.28-8.6-2.84-17.171-3.779-25.809-1.547-14.257-1.609-28.463,1.373-42.657,3.753-17.851,14.1-30.036,30.366-37.684,17.517-8.237,36.167-12.721,55.014-16.377A497.646,497.646,0,0,1,780.6,203.421c24.872.721,49.674,2.208,74.228,6.414,10.934,1.872,21.692,4.52,31.837,9.2a1.081,1.081,0,0,0,1.385.763l.008,0q5,4.48,10.009,8.964c1.123.74,1.135,2.925,3.19,2.447.052-.455.1-.908.152-1.362l.263-.272,1.121,1.121a10.208,10.208,0,0,1,3.534,4.2c.591.418,1.39,1.147.759,1.632-.836.646-1.012-.454-1.244-1.066-1.124-.462-1.863-1.744-3.3-1.537C916.248,254,914.413,276.737,913.184,299.141Z" transform="translate(-14.965 1471.343)" fill="#575757" fill-rule="evenodd" opacity="0.9"/>
    <text id="最大斜角_有效直徑_" data-name="最大斜角(有效直徑)" transform="matrix(0.848, -0.53, 0.53, 0.848, 189.989, 1884.198)" fill="#001976" font-size="24" font-family="YuGothicUI-Regular, Yu Gothic UI"><tspan x="0" y="0">最大斜角</tspan><tspan y="0" font-family="SegoeUI, Segoe UI">(</tspan><tspan y="0">有效直徑</tspan><tspan y="0" font-family="SegoeUI, Segoe UI">)</tspan></text>
    <g id="Group_295" data-name="Group 295" transform="translate(104.541 1574.703)">
      <rect id="Rectangle_1529" data-name="Rectangle 1529" width="300.956" height="2.412" transform="translate(14.558 10.264)" fill="#001976"/>
      <g id="Group_178" data-name="Group 178" transform="translate(0 0)">
        <path id="Path_178" data-name="Path 178" d="M112.05,136.96c6.849,2.541,15.349,6.878,20.618,11.472l-4.15-11.472,4.15-11.47C127.4,130.084,118.9,134.421,112.05,136.96Z" transform="translate(-112.05 -125.49)" fill="#001976"/>
      </g>
      <g id="Group_179" data-name="Group 179" transform="translate(309.454 0)">
        <path id="Path_179" data-name="Path 179" d="M389.24,136.96c-6.851,2.541-15.35,6.878-20.618,11.472l4.15-11.472-4.15-11.47C373.89,130.084,382.39,134.421,389.24,136.96Z" transform="translate(-368.622 -125.49)" fill="#001976"/>
      </g>
    </g>
    <g id="Group_285" data-name="Group 285" transform="translate(269.575 2079.089)">
      <rect id="Rectangle_1530" data-name="Rectangle 1530" width="432.335" height="2.412" transform="translate(14.558 10.264)" fill="#001976"/>
      <g id="Group_181" data-name="Group 181">
        <path id="Path_180" data-name="Path 180" d="M248.883,527.96c6.849,2.541,15.349,6.878,20.618,11.472l-4.15-11.472,4.15-11.47C264.232,521.084,255.732,525.421,248.883,527.96Z" transform="translate(-248.883 -516.49)" fill="#001976"/>
      </g>
      <g id="Group_182" data-name="Group 182" transform="translate(440.833)">
        <path id="Path_181" data-name="Path 181" d="M635,527.96c-6.851,2.541-15.35,6.878-20.618,11.472l4.149-11.472-4.149-11.47C619.652,521.084,628.152,525.421,635,527.96Z" transform="translate(-614.384 -516.49)" fill="#001976"/>
      </g>
    </g>
    <g id="Group_290" data-name="Group 290" transform="translate(434.813 1968.129)">
      <rect id="Rectangle_1531" data-name="Rectangle 1531" width="100.54" height="2.412" transform="translate(14.558 10.264)" fill="#001976"/>
      <g id="Group_184" data-name="Group 184">
        <path id="Path_182" data-name="Path 182" d="M385.883,453.96c6.85,2.541,15.349,6.878,20.618,11.472l-4.15-11.472,4.15-11.47C401.232,447.084,392.733,451.421,385.883,453.96Z" transform="translate(-385.883 -442.49)" fill="#001976"/>
      </g>
      <g id="Group_185" data-name="Group 185" transform="translate(109.038)">
        <path id="Path_183" data-name="Path 183" d="M496.906,453.96c-6.851,2.541-15.35,6.878-20.618,11.472l4.15-11.472-4.15-11.47C481.556,447.084,490.056,451.421,496.906,453.96Z" transform="translate(-476.288 -442.49)" fill="#001976"/>
      </g>
    </g>
    <g id="Group_303" data-name="Group 303" transform="translate(1068.635 1675.255)">
      <rect id="Rectangle_1532" data-name="Rectangle 1532" width="2.412" height="229.677" transform="translate(10.266 14.558)" fill="#001976"/>
      <g id="Group_187" data-name="Group 187">
        <path id="Path_184" data-name="Path 184" d="M894.677,199.664c-2.542,6.851-6.878,15.35-11.472,20.618l11.472-4.15,11.47,4.15C901.554,215.014,897.217,206.515,894.677,199.664Z" transform="translate(-883.205 -199.664)" fill="#001976"/>
      </g>
      <g id="Group_188" data-name="Group 188" transform="translate(0 238.176)">
        <path id="Path_185" data-name="Path 185" d="M894.677,417.756c-2.542-6.85-6.878-15.349-11.472-20.617l11.472,4.149,11.47-4.149C901.554,402.407,897.217,410.907,894.677,417.756Z" transform="translate(-883.205 -397.139)" fill="#001976"/>
      </g>
    </g>
    <g id="Group_291" data-name="Group 291" transform="translate(136.492 1711.473)">
      <rect id="Rectangle_1533" data-name="Rectangle 1533" width="300.954" height="2.412" transform="translate(11.793 163.26) rotate(-31.377)" fill="#001976"/>
      <g id="Group_190" data-name="Group 190" transform="translate(0 151.354)">
        <path id="Path_186" data-name="Path 186" d="M138.541,375.711c7.171-1.4,16.686-2.12,23.576-.943l-9.516-7.632-2.43-11.952C148.064,361.848,143.066,369.976,138.541,375.711Z" transform="translate(-138.541 -355.183)" fill="#001976"/>
      </g>
      <g id="Group_191" data-name="Group 191" transform="translate(258.211)">
        <path id="Path_187" data-name="Path 187" d="M376.2,229.693c-4.524,5.737-9.522,13.865-11.628,20.532l-2.431-11.955-9.515-7.631C359.517,231.816,369.032,231.093,376.2,229.693Z" transform="translate(-352.628 -229.693)" fill="#001976"/>
      </g>
    </g>
    <g id="Group_301" data-name="Group 301" transform="translate(981.566 1772.149)">
      <rect id="Rectangle_1537" data-name="Rectangle 1537" width="2.412" height="132.783" transform="translate(10.266 14.558)" fill="#5f5e5e"/>
      <g id="Group_196" data-name="Group 196" transform="translate(0 0)">
        <path id="Path_190" data-name="Path 190" d="M850.677,280c-2.542,6.851-6.878,15.35-11.472,20.618l11.472-4.15,11.47,4.15C857.554,295.35,853.216,286.851,850.677,280Z" transform="translate(-839.205 -280)" fill="#5f5e5e"/>
      </g>
      <g id="Group_197" data-name="Group 197" transform="translate(0 141.282)">
        <path id="Path_191" data-name="Path 191" d="M850.677,417.756c-2.542-6.85-6.878-15.349-11.472-20.617l11.472,4.149,11.47-4.149C857.554,402.407,853.216,410.907,850.677,417.756Z" transform="translate(-839.205 -397.139)" fill="#5f5e5e"/>
      </g>
    </g>
    <g id="Group_296" data-name="Group 296" transform="translate(310.383 1508.052)">
      <rect id="Rectangle_1538" data-name="Rectangle 1538" width="159.128" height="2.412" transform="translate(14.558 10.264)" fill="#001976"/>
      <g id="Group_199" data-name="Group 199">
        <path id="Path_195" data-name="Path 195" d="M282.717,80.96c6.849,2.541,15.349,6.878,20.618,11.472l-4.15-11.472,4.15-11.47C298.066,74.084,289.566,78.421,282.717,80.96Z" transform="translate(-282.717 -69.49)" fill="#001976"/>
      </g>
      <g id="Group_200" data-name="Group 200" transform="translate(167.626)">
        <path id="Path_196" data-name="Path 196" d="M442.316,80.96c-6.851,2.541-15.35,6.878-20.618,11.472l4.15-11.472L421.7,69.49C426.966,74.084,435.466,78.421,442.316,80.96Z" transform="translate(-421.698 -69.49)" fill="#001976"/>
      </g>
    </g>
    <g id="Group_297" data-name="Group 297" transform="translate(498.626 1508.052)">
      <rect id="Rectangle_1539" data-name="Rectangle 1539" width="162.563" height="2.412" transform="translate(14.558 10.264)" fill="#001976"/>
      <g id="Group_202" data-name="Group 202">
        <path id="Path_197" data-name="Path 197" d="M438.793,80.96c6.851,2.541,15.35,6.878,20.618,11.472l-4.15-11.472,4.15-11.47C454.143,74.084,445.644,78.421,438.793,80.96Z" transform="translate(-438.793 -69.49)" fill="#001976"/>
      </g>
      <g id="Group_203" data-name="Group 203" transform="translate(171.061)">
        <path id="Path_198" data-name="Path 198" d="M601.24,80.96c-6.851,2.541-15.35,6.878-20.618,11.472l4.15-11.472-4.15-11.47C585.89,74.084,594.39,78.421,601.24,80.96Z" transform="translate(-580.622 -69.49)" fill="#001976"/>
      </g>
    </g>
    <line id="Line_60" data-name="Line 60" y1="462.882" transform="translate(690.881 1480)" fill="none" stroke="#5f5e5e" stroke-width="2" stroke-dasharray="5 5"/>
    <line id="Line_61" data-name="Line 61" y1="462.882" transform="translate(310.855 1480)" fill="none" stroke="#5f5e5e" stroke-width="2" stroke-dasharray="5 5"/>
    <line id="Line_64" data-name="Line 64" y1="382.972" transform="translate(435.582 1559.521)" fill="none" stroke="#5f5e5e" stroke-width="2" stroke-dasharray="5 5"/>
    <line id="Line_62" data-name="Line 62" y1="430.283" transform="translate(499.894 1480)" fill="none" stroke="#5f5e5e" stroke-width="2" stroke-dasharray="5 5"/>
    <line id="Line_65" data-name="Line 65" x2="578.686" transform="translate(539.32 1675.123)" fill="none" stroke="#5f5e5e" stroke-width="2" stroke-dasharray="5 5"/>
    <line id="Line_66" data-name="Line 66" x2="578.686" transform="translate(539.32 1934.32)" fill="none" stroke="#5f5e5e" stroke-width="2" stroke-dasharray="5 5"/>
    <path id="Path_311" data-name="Path 311" d="M0,0H989.479" transform="translate(47.234 1771.591)" fill="none" stroke="#5f5e5e" stroke-width="2" stroke-dasharray="5 5"/>
    <line id="Line_68" data-name="Line 68" x2="903.293" transform="translate(47.234 1800.824)" fill="none" stroke="#5f5e5e" stroke-width="2" stroke-dasharray="5 5"/>
    <line id="Line_69" data-name="Line 69" y1="448.979" transform="translate(106.226 1559.521)" fill="none" stroke="#5f5e5e" stroke-width="2" stroke-dasharray="5 5"/>
    <path id="Path_312" data-name="Path 312" d="M0,414.012V0" transform="translate(564.226 1594.488)" fill="none" stroke="#5f5e5e" stroke-width="2" stroke-dasharray="5 5"/>
    <line id="Line_70" data-name="Line 70" y1="468.004" transform="translate(271.878 1675.33)" fill="none" stroke="#5f5e5e" stroke-width="2" stroke-dasharray="5 5"/>
    <line id="Line_71" data-name="Line 71" y1="468.004" transform="translate(729.858 1675.33)" fill="none" stroke="#5f5e5e" stroke-width="2" stroke-dasharray="5 5"/>
    <text id="CR_R_" data-name="CR(R)" transform="translate(408 1510)" fill="#001976" font-size="24" font-family="SegoeUI, Segoe UI"><tspan x="-29.027" y="0">CR(R)</tspan></text>
    <text id="CR_L_" data-name="CR(L)" transform="translate(597 1510)" fill="#001976" font-size="24" font-family="SegoeUI, Segoe UI"><tspan x="-27.498" y="0">CR(L)</tspan></text>
    <text id="框面水平寬度" transform="translate(270 1575)" fill="#001976" font-size="24" font-family="YuGothicUI-Regular, Yu Gothic UI"><tspan x="-72" y="0">框面水平寬度</tspan></text>
    <text id="眼位高" transform="translate(642 1760)" fill="#001976" font-size="24" font-family="YuGothicUI-Regular, Yu Gothic UI"><tspan x="-36" y="0">眼位高</tspan></text>
    <text id="鼻橋寬度" transform="translate(503 1963)" fill="#001976" font-size="24" font-family="YuGothicUI-Regular, Yu Gothic UI"><tspan x="-48" y="0">鼻橋寬度</tspan></text>
    <text id="兩片光學中心距離" transform="translate(503 2076)" fill="#001976" font-size="24" font-family="YuGothicUI-Regular, Yu Gothic UI"><tspan x="-96" y="0">兩片光學中心距離</tspan></text>
    <text id="框面幾何中心" transform="translate(740 1760)" fill="#001976" font-size="24" font-family="YuGothicUI-Regular, Yu Gothic UI"><tspan x="0" y="0">框面幾何中心</tspan></text>
    <text id="框_面_垂_直_長_度" data-name="框
面
垂
直
長
度" transform="translate(1090 1736)" fill="#001976" font-size="24" font-family="YuGothicUI-Regular, Yu Gothic UI"><tspan x="0" y="0">框</tspan><tspan y="0" font-family="SegoeUI, Segoe UI"></tspan><tspan x="0" y="32">面</tspan><tspan y="32" font-family="SegoeUI, Segoe UI"></tspan><tspan x="0" y="64">垂</tspan><tspan y="64" font-family="SegoeUI, Segoe UI"></tspan><tspan x="0" y="96">直</tspan><tspan y="96" font-family="SegoeUI, Segoe UI"></tspan><tspan x="0" y="128">長</tspan><tspan y="128" font-family="SegoeUI, Segoe UI"></tspan><tspan x="0" y="160">度</tspan></text>
    <rect id="Rectangle_1596" data-name="Rectangle 1596" width="42.283" height="4.971" transform="translate(669.165 1769.663)" fill="#001976"/>
    <rect id="Rectangle_1597" data-name="Rectangle 1597" width="4.971" height="42.283" transform="translate(687.821 1751.007)" fill="#001976"/>
    <circle id="Ellipse_102" data-name="Ellipse 102" cx="7" cy="7" r="7" transform="translate(723 1765)" fill="#001976"/>
  </g>
</svg>
