<svg xmlns="http://www.w3.org/2000/svg" width="1080.878" height="663.334" viewBox="0 0 1080.878 663.334">
  <g id="Group_432" data-name="Group 432" transform="translate(-37.128 -1480)">
    <text id="最大斜角_有效直徑_" data-name="最大斜角(有效直徑)" transform="matrix(0.848, -0.53, 0.53, 0.848, 189.989, 1884.198)" fill="#001976" font-size="24" font-family="YuGothicUI-Regular, Yu Gothic UI"><tspan x="0" y="0">最大斜角</tspan><tspan y="0" font-family="SegoeUI, Segoe UI">(</tspan><tspan y="0">有效直徑</tspan><tspan y="0" font-family="SegoeUI, Segoe UI">)</tspan></text>
    <g id="Group_288" data-name="Group 288" transform="translate(37.128 1661.373)" opacity="0.9">
      <path id="Path_160" data-name="Path 160" d="M379.353,317.552c-2.957-.21-2.335,6.418-5.639,3.642-1.766-1.485,1.078-5.128,1.541-7.842.784-4.587,5.388-2.764,7.612-4.841C382.808,311.957,382.278,315.221,379.353,317.552Z" transform="translate(9.175 -163.348)" fill="#666260" fill-rule="evenodd"/>
      <path id="Path_161" data-name="Path 161" d="M497.971,307.662a2.078,2.078,0,0,0,2.383.486c3.022-.843,4.876,1.174,6.092,3.336,1.678,2.981-1.922,2.651-3,3.938a23.166,23.166,0,0,1-2.285,2.123C498.668,314.712,501.363,310.2,497.971,307.662Z" transform="translate(34.903 -163.523)" fill="#666260" fill-rule="evenodd"/>
      <path id="Path_162" data-name="Path 162" d="M757.057,225.177l-.04-.109q-.014-1.391-.027-2.784l.319-.32a10.223,10.223,0,0,1,3.507,4.176q-.241.282-.485.563C759.216,226.244,758.482,224.969,757.057,225.177Z" transform="translate(88.288 -181.185)" fill="#666260" fill-rule="evenodd"/>
      <path id="Path_163" data-name="Path 163" d="M760.245,225.427c.585.414,1.379,1.139.754,1.621-.831.643-1.006-.45-1.239-1.058Q760,225.71,760.245,225.427Z" transform="translate(88.859 -180.472)" fill="#666260" fill-rule="evenodd"/>
      <path id="Path_164" data-name="Path 164" d="M756.411,221.044c.373.372.742.742,1.117,1.112l-.316.318-1.3.107.082.086.148-1.353Z" transform="translate(88.067 -181.375)" fill="#666260" fill-rule="evenodd"/>
      <path id="Path_165" data-name="Path 165" d="M414.216,292.447A56.24,56.24,0,0,0,401.3,286.52c-1.55,8.367-2.9,16.781-4.741,25.083-.82,3.7-2.521,6.618,3.759,6.351,4.431-.188,7.436,5.05,6.211,7.432-2.021,3.938-3.853,8.267-6.664,11.819-1.743,2.2-3.833,1.979-4.988-.935-.6-1.527-1.113-3.094-1.665-4.641a2.734,2.734,0,0,0,2.06-3.688,2.189,2.189,0,0,0-1.774-1.111c-1.947.125-1.369,2.271-2.3,3.3-.286.316-.135,1.026-.183,1.558q-5.874,14.877-11.747,29.756c2.089-1.66,3.691.258,5.467.769,6.313,1.816,10.886-1.052,11.285-7.122q.054-1.189.107-2.375c.817-.362,1.99-.491,2.393-1.116a179.8,179.8,0,0,0,21.208-46.019C421.729,298.919,420.219,296.191,414.216,292.447Z" transform="translate(10.438 -167.88)" fill="#666260" fill-rule="evenodd"/>
      <path id="Path_166" data-name="Path 166" d="M755.962,222.337l1.3-.107q.011,1.391.027,2.784C756.525,224.278,755.1,223.872,755.962,222.337Z" transform="translate(88.022 -181.131)" fill="#151413" fill-rule="evenodd"/>
      <g id="Group_173" data-name="Group 173">
        <path id="Path_167" data-name="Path 167" d="M979.117,264.679c-.669-8.831-.931-17.7-1.117-26.554-.054-2.622-.785-3.408-3.445-3.462-7.736-.156-15.495-.347-23.191-1.112-5.677-.563-11.428-.394-17.013-1.246-8.989-1.369-13.265-9.309-19.034-15.1-4.216-4.231-6.308-10.787-12.7-12.591-9.68-2.729-19.371-5.665-29.253-7.383a639.145,639.145,0,0,0-72.314-8.327c-31.443-1.842-62.682.046-93.942,2.728-28.885,2.48-56.915,9.087-84.7,17.1-14.824,4.276-28.946,9.119-38.493,22.559a15.778,15.778,0,0,1-17.151,6.484c-13.734-3.65-27.736-3.586-41.637-3.519-16.9.077-33.882-.391-50.63,3.459-8.109,1.865-15.5-.152-20.86-7.671-5.393-7.572-12.167-13.477-21.408-16.5a491.5,491.5,0,0,0-64.823-16.651c-33.911-6.178-68.1-8.25-102.447-8.712-15.312-.205-30.61.754-45.872,2.047-21.782,1.847-43.5,4.2-64.847,9.156-13.106,3.039-25.761,6.151-33.563,19.2-7.448,12.46-19.627,16.087-33.8,15.236-7.871-.474-15.835.586-23.752,1-3.55.186-5.838.891-5.7,5.693a203.107,203.107,0,0,1-1.212,24.319c-.4,4.295,1.192,5.378,5.167,5.444,8.107.136,16.21.679,24.309,1.119,12.293.667,17.132,5.167,18.832,17.286,2.451,17.464,5.128,34.861,8.764,52.157,6.808,32.389,19.47,62.287,36.81,90.23,7.029,11.325,19.271,21.847,32.436,26.79,1.009.042,51.117,14.934,94.311,16.184,84.144,1.939,119.536-15.168,132.492-32.519,14.064-18.832,26.586-38.507,36.527-59.81q5.874-14.88,11.746-29.756c.048-.532-.1-1.242.183-1.558.926-1.026.349-3.172,2.3-3.3a2.189,2.189,0,0,1,1.774,1.111,2.734,2.734,0,0,1-2.06,3.688c.551,1.547,1.06,3.114,1.664,4.641,1.155,2.914,3.246,3.137,4.988.935,2.81-3.552,4.642-7.881,6.664-11.819,1.224-2.382-1.78-7.62-6.211-7.432-6.28.266-4.58-2.647-3.759-6.351,1.839-8.3,3.191-16.717,4.741-25.083,1.241-8.879,2.217-17.806,3.8-26.624,1.585-8.853,6.526-14.718,15.814-16.826,21.51-4.881,42.935-4.436,64.458-.2,7.9,1.553,13.143,5.928,14.78,13.6,1.71,8.015,2.429,16.24,3.578,24.375a2.485,2.485,0,0,0,.773,2.462c0,.65.012,1.3.018,1.948l3.515,19.809c-3.653-3.074-3.265-7.186-5.332-10.008-.969-1.321-1.541-2.922-2.439-4.3-.534-.814-1.023-2.365-2.4-1.426-1.03.7-.989,1.616-.481,3.168,2.154,6.577,6.379,11.931,9.847,17.7,1.572,2.61,1.892,3.756-1.36,4.418-4.8.978-7.459,4.424-7.39,8.831.072,4.745,8.762,12.659,12.534,12.782,3.107.1,1.69-1.924,1.789-3.277.033-2.266-4.167-3.27-1.88-6.127.424-.531,1.5-.542,2.269-.791.631,2.282,1.846,4.483.956,6.975,2.4.317,2.407,2.54,2.989,4.09,2.639,7.022,5.091,14.114,7.607,21.182a5.643,5.643,0,0,1,1.008,1.192,299.643,299.643,0,0,0,33.267,56.271c8.085,10.774,16.693,21.289,28.9,27.148,12.034,5.776,25.351,8.156,38.65,9.838,2.781.659,7.088,1.075,13.384,2.061,17.913.913,29.767,1,47.438.907,5.567.03,8.917-.39,12.768-.607,12.127-.681,15.541-.858,27.385-3.4,18.563-2.52,36.622-7.1,54.576-12.419,13.4-3.968,24.163-10.943,32.337-22.3,17.693-24.583,29.58-51.958,37.978-80.78,6.582-22.59,10.2-45.889,12.879-69.293,1.183-10.364,7.239-15.549,17.612-15.889,8.3-.271,16.577-.99,24.871-1.314C978.028,269.819,979.414,268.6,979.117,264.679ZM448.2,333.317c-.06,3.446-.59,6.71-3.515,9.041-.07,8.24-3.723,15.541-6.588,22.912-8.589,22.107-20.635,42.28-34.753,61.374-13.6,18.4-31.659,28.407-53.872,31.922a298.031,298.031,0,0,1-32.919,3.474,17.358,17.358,0,0,0,6.65,1.481,17.369,17.369,0,0,1-6.652-1.481c-18.049-.075-36.122.332-54.112-1.421-11.815-1.153-23.657-2.3-35.273-4.987-8.682-2.008-17.392-3.9-26.089-5.837-22.909-6.445-36.067-23.593-46.779-43.142-23.11-42.178-32.185-87.627-30.845-135.409.566-20.176,7.755-37.189,23.757-50.079,7.421-5.98,16.465-8.125,25.241-10.6,16.374-4.611,33.393-5.372,50.225-6.742,36.309-2.955,72.627-2.048,108.882,1.38,8.42.794,16.967,1.488,25.147,3.154,17.446,3.554,35.2,6.359,52.008,12.31,15.016,5.318,29.154,12.828,37.687,27.3,4.022,6.827,5.425,14.678,6.39,22.5C455.41,291.714,453.39,312.634,448.2,333.317Zm450.87-107.2a.976.976,0,0,0-.786-.252A.965.965,0,0,1,899.07,226.12Zm-.794-.252,1.025,1.088-1.025-1.088Zm-.106-.011a14.4,14.4,0,0,0-5.119-5.569A14.4,14.4,0,0,1,898.171,225.857Zm13.9,71.093a250.269,250.269,0,0,1-11.484,62.1c-7.708,24.295-17.912,47.271-33.578,67.566a56.154,56.154,0,0,1-19.822,16.394c-16.148,6.781-33.14,10.371-50.33,13.064-11.5,1.8-23.035,3.733-34.626,4.387-14.523.82-29.113.392-43.677.5-14.734-.4-29.13-2.876-43.428-6.426-16.638-4.13-29.282-13.794-39.618-27.014a251.63,251.63,0,0,1-33.6-57.355c-3.833-9.077-6.492-18.651-9.683-28-2.5-2.833.2-7.34-3.194-9.883-1.272-8.548-2.822-17.064-3.756-25.649-1.535-14.167-1.6-28.286,1.364-42.391,3.729-17.738,14.016-29.847,30.177-37.448,17.41-8.186,35.943-12.64,54.673-16.275a494.586,494.586,0,0,1,108.827-8.7c24.717.718,49.363,2.194,73.767,6.374,10.863,1.86,21.554,4.493,31.636,9.141a1.075,1.075,0,0,0,1.376.757l.008,0q4.975,4.452,9.949,8.908c1.113.736,1.128,2.907,3.17,2.433l.148-1.353.264-.27c.373.371.742.742,1.114,1.114a10.163,10.163,0,0,1,3.512,4.172c.585.414,1.379,1.139.754,1.621-.831.643-1.006-.45-1.239-1.058-1.114-.46-1.849-1.734-3.275-1.527C915.12,252.088,913.3,274.686,912.074,296.95Z" transform="translate(-56.157 -188.154)" fill="#474645" fill-rule="evenodd"/>
        <path id="Path_168" data-name="Path 168" d="M162.444,412.328c-.5-.17-1-.367-1.5-.556A7.928,7.928,0,0,0,162.444,412.328Z" transform="translate(-34.564 -142.065)" fill="#474645" fill-rule="evenodd"/>
      </g>
      <path id="Path_169" data-name="Path 169" d="M499.5,337.307c-.581-1.55-.586-3.773-2.989-4.09.89-2.492-.326-4.693-.956-6.975-.773.25-1.844.261-2.269.791-2.287,2.857,1.913,3.861,1.88,6.127-.1,1.353,1.318,3.378-1.789,3.277-3.772-.123-12.461-8.037-12.534-12.782-.069-4.407,2.591-7.853,7.39-8.831,2.435-.5,2.868-1.263,2.27-2.712,0-.182.01-.366.01-.558,0-.352-.01-.688-.023-.991.011-.2.023-.4.023-.6a9.921,9.921,0,0,0-.061-1.056c.041-.464.061-.946.061-1.436a16.4,16.4,0,0,0-.148-2.225l.035.034c-1.281-7.219-2.4-13.514-3.515-19.809-12.67,1.081-19.775,6.24-21.74,15.784a6.659,6.659,0,0,0,1.154,6.274c.966,2.561,1.6,5.314,2.954,7.65,7.35,12.679,14.942,25.217,23.371,37.229,5.261,7.5,6.08,7.9,14.483,6.085C504.588,351.421,502.136,344.329,499.5,337.307Z" transform="translate(28.069 -168.098)" fill="#666260" fill-rule="evenodd"/>
    </g>
    <g id="Group_295" data-name="Group 295" transform="translate(104.541 1574.703)">
      <rect id="Rectangle_1529" data-name="Rectangle 1529" width="300.956" height="2.412" transform="translate(14.558 10.264)" fill="#001976"/>
      <g id="Group_178" data-name="Group 178" transform="translate(0 0)">
        <path id="Path_178" data-name="Path 178" d="M112.05,136.96c6.849,2.541,15.349,6.878,20.618,11.472l-4.15-11.472,4.15-11.47C127.4,130.084,118.9,134.421,112.05,136.96Z" transform="translate(-112.05 -125.49)" fill="#001976"/>
      </g>
      <g id="Group_179" data-name="Group 179" transform="translate(309.454 0)">
        <path id="Path_179" data-name="Path 179" d="M389.24,136.96c-6.851,2.541-15.35,6.878-20.618,11.472l4.15-11.472-4.15-11.47C373.89,130.084,382.39,134.421,389.24,136.96Z" transform="translate(-368.622 -125.49)" fill="#001976"/>
      </g>
    </g>
    <g id="Group_285" data-name="Group 285" transform="translate(269.575 2079.089)">
      <rect id="Rectangle_1530" data-name="Rectangle 1530" width="432.335" height="2.412" transform="translate(14.558 10.264)" fill="#001976"/>
      <g id="Group_181" data-name="Group 181">
        <path id="Path_180" data-name="Path 180" d="M248.883,527.96c6.849,2.541,15.349,6.878,20.618,11.472l-4.15-11.472,4.15-11.47C264.232,521.084,255.732,525.421,248.883,527.96Z" transform="translate(-248.883 -516.49)" fill="#001976"/>
      </g>
      <g id="Group_182" data-name="Group 182" transform="translate(440.833)">
        <path id="Path_181" data-name="Path 181" d="M635,527.96c-6.851,2.541-15.35,6.878-20.618,11.472l4.149-11.472-4.149-11.47C619.652,521.084,628.152,525.421,635,527.96Z" transform="translate(-614.384 -516.49)" fill="#001976"/>
      </g>
    </g>
    <g id="Group_290" data-name="Group 290" transform="translate(434.813 1968.129)">
      <rect id="Rectangle_1531" data-name="Rectangle 1531" width="100.54" height="2.412" transform="translate(14.558 10.264)" fill="#001976"/>
      <g id="Group_184" data-name="Group 184">
        <path id="Path_182" data-name="Path 182" d="M385.883,453.96c6.85,2.541,15.349,6.878,20.618,11.472l-4.15-11.472,4.15-11.47C401.232,447.084,392.733,451.421,385.883,453.96Z" transform="translate(-385.883 -442.49)" fill="#001976"/>
      </g>
      <g id="Group_185" data-name="Group 185" transform="translate(109.038)">
        <path id="Path_183" data-name="Path 183" d="M496.906,453.96c-6.851,2.541-15.35,6.878-20.618,11.472l4.15-11.472-4.15-11.47C481.556,447.084,490.056,451.421,496.906,453.96Z" transform="translate(-476.288 -442.49)" fill="#001976"/>
      </g>
    </g>
    <g id="Group_303" data-name="Group 303" transform="translate(1068.635 1675.255)">
      <rect id="Rectangle_1532" data-name="Rectangle 1532" width="2.412" height="229.677" transform="translate(10.266 14.558)" fill="#001976"/>
      <g id="Group_187" data-name="Group 187">
        <path id="Path_184" data-name="Path 184" d="M894.677,199.664c-2.542,6.851-6.878,15.35-11.472,20.618l11.472-4.15,11.47,4.15C901.554,215.014,897.217,206.515,894.677,199.664Z" transform="translate(-883.205 -199.664)" fill="#001976"/>
      </g>
      <g id="Group_188" data-name="Group 188" transform="translate(0 238.176)">
        <path id="Path_185" data-name="Path 185" d="M894.677,417.756c-2.542-6.85-6.878-15.349-11.472-20.617l11.472,4.149,11.47-4.149C901.554,402.407,897.217,410.907,894.677,417.756Z" transform="translate(-883.205 -397.139)" fill="#001976"/>
      </g>
    </g>
    <g id="Group_291" data-name="Group 291" transform="translate(136.492 1711.473)">
      <rect id="Rectangle_1533" data-name="Rectangle 1533" width="300.954" height="2.412" transform="translate(11.793 163.26) rotate(-31.377)" fill="#001976"/>
      <g id="Group_190" data-name="Group 190" transform="translate(0 151.354)">
        <path id="Path_186" data-name="Path 186" d="M138.541,375.711c7.171-1.4,16.686-2.12,23.576-.943l-9.516-7.632-2.43-11.952C148.064,361.848,143.066,369.976,138.541,375.711Z" transform="translate(-138.541 -355.183)" fill="#001976"/>
      </g>
      <g id="Group_191" data-name="Group 191" transform="translate(258.211)">
        <path id="Path_187" data-name="Path 187" d="M376.2,229.693c-4.524,5.737-9.522,13.865-11.628,20.532l-2.431-11.955-9.515-7.631C359.517,231.816,369.032,231.093,376.2,229.693Z" transform="translate(-352.628 -229.693)" fill="#001976"/>
      </g>
    </g>
    <g id="Group_301" data-name="Group 301" transform="translate(981.566 1772.149)">
      <rect id="Rectangle_1537" data-name="Rectangle 1537" width="2.412" height="132.783" transform="translate(10.266 14.558)" fill="#5f5e5e"/>
      <g id="Group_196" data-name="Group 196" transform="translate(0 0)">
        <path id="Path_190" data-name="Path 190" d="M850.677,280c-2.542,6.851-6.878,15.35-11.472,20.618l11.472-4.15,11.47,4.15C857.554,295.35,853.216,286.851,850.677,280Z" transform="translate(-839.205 -280)" fill="#5f5e5e"/>
      </g>
      <g id="Group_197" data-name="Group 197" transform="translate(0 141.282)">
        <path id="Path_191" data-name="Path 191" d="M850.677,417.756c-2.542-6.85-6.878-15.349-11.472-20.617l11.472,4.149,11.47-4.149C857.554,402.407,853.216,410.907,850.677,417.756Z" transform="translate(-839.205 -397.139)" fill="#5f5e5e"/>
      </g>
    </g>
    <g id="Group_296" data-name="Group 296" transform="translate(310.383 1508.052)">
      <rect id="Rectangle_1538" data-name="Rectangle 1538" width="159.128" height="2.412" transform="translate(14.558 10.264)" fill="#001976"/>
      <g id="Group_199" data-name="Group 199">
        <path id="Path_195" data-name="Path 195" d="M282.717,80.96c6.849,2.541,15.349,6.878,20.618,11.472l-4.15-11.472,4.15-11.47C298.066,74.084,289.566,78.421,282.717,80.96Z" transform="translate(-282.717 -69.49)" fill="#001976"/>
      </g>
      <g id="Group_200" data-name="Group 200" transform="translate(167.626)">
        <path id="Path_196" data-name="Path 196" d="M442.316,80.96c-6.851,2.541-15.35,6.878-20.618,11.472l4.15-11.472L421.7,69.49C426.966,74.084,435.466,78.421,442.316,80.96Z" transform="translate(-421.698 -69.49)" fill="#001976"/>
      </g>
    </g>
    <g id="Group_297" data-name="Group 297" transform="translate(498.626 1508.052)">
      <rect id="Rectangle_1539" data-name="Rectangle 1539" width="162.563" height="2.412" transform="translate(14.558 10.264)" fill="#001976"/>
      <g id="Group_202" data-name="Group 202">
        <path id="Path_197" data-name="Path 197" d="M438.793,80.96c6.851,2.541,15.35,6.878,20.618,11.472l-4.15-11.472,4.15-11.47C454.143,74.084,445.644,78.421,438.793,80.96Z" transform="translate(-438.793 -69.49)" fill="#001976"/>
      </g>
      <g id="Group_203" data-name="Group 203" transform="translate(171.061)">
        <path id="Path_198" data-name="Path 198" d="M601.24,80.96c-6.851,2.541-15.35,6.878-20.618,11.472l4.15-11.472-4.15-11.47C585.89,74.084,594.39,78.421,601.24,80.96Z" transform="translate(-580.622 -69.49)" fill="#001976"/>
      </g>
    </g>
    <line id="Line_60" data-name="Line 60" y1="462.882" transform="translate(690.881 1480)" fill="none" stroke="#5f5e5e" stroke-width="2" stroke-dasharray="5 5"/>
    <line id="Line_61" data-name="Line 61" y1="462.882" transform="translate(310.855 1480)" fill="none" stroke="#5f5e5e" stroke-width="2" stroke-dasharray="5 5"/>
    <line id="Line_64" data-name="Line 64" y1="382.972" transform="translate(435.582 1559.521)" fill="none" stroke="#5f5e5e" stroke-width="2" stroke-dasharray="5 5"/>
    <line id="Line_62" data-name="Line 62" y1="430.283" transform="translate(499.894 1480)" fill="none" stroke="#5f5e5e" stroke-width="2" stroke-dasharray="5 5"/>
    <line id="Line_65" data-name="Line 65" x2="578.686" transform="translate(539.32 1675.123)" fill="none" stroke="#5f5e5e" stroke-width="2" stroke-dasharray="5 5"/>
    <line id="Line_66" data-name="Line 66" x2="578.686" transform="translate(539.32 1934.32)" fill="none" stroke="#5f5e5e" stroke-width="2" stroke-dasharray="5 5"/>
    <path id="Path_311" data-name="Path 311" d="M0,0H989.479" transform="translate(47.234 1771.591)" fill="none" stroke="#5f5e5e" stroke-width="2" stroke-dasharray="5 5"/>
    <line id="Line_68" data-name="Line 68" x2="903.293" transform="translate(47.234 1800.824)" fill="none" stroke="#5f5e5e" stroke-width="2" stroke-dasharray="5 5"/>
    <line id="Line_69" data-name="Line 69" y1="448.979" transform="translate(106.226 1559.521)" fill="none" stroke="#5f5e5e" stroke-width="2" stroke-dasharray="5 5"/>
    <path id="Path_312" data-name="Path 312" d="M0,414.012V0" transform="translate(564.226 1594.488)" fill="none" stroke="#5f5e5e" stroke-width="2" stroke-dasharray="5 5"/>
    <line id="Line_70" data-name="Line 70" y1="468.004" transform="translate(271.878 1675.33)" fill="none" stroke="#5f5e5e" stroke-width="2" stroke-dasharray="5 5"/>
    <line id="Line_71" data-name="Line 71" y1="468.004" transform="translate(729.858 1675.33)" fill="none" stroke="#5f5e5e" stroke-width="2" stroke-dasharray="5 5"/>
    <text id="CR_R_" data-name="CR(R)" transform="translate(408 1510)" fill="#001976" font-size="24" font-family="SegoeUI, Segoe UI"><tspan x="-29.027" y="0">CR(R)</tspan></text>
    <text id="CR_L_" data-name="CR(L)" transform="translate(597 1510)" fill="#001976" font-size="24" font-family="SegoeUI, Segoe UI"><tspan x="-27.498" y="0">CR(L)</tspan></text>
    <text id="框面水平寬度" transform="translate(270 1575)" fill="#001976" font-size="24" font-family="YuGothicUI-Regular, Yu Gothic UI"><tspan x="-72" y="0">框面水平寬度</tspan></text>
    <text id="眼位高" transform="translate(642 1760)" fill="#001976" font-size="24" font-family="YuGothicUI-Regular, Yu Gothic UI"><tspan x="-36" y="0">眼位高</tspan></text>
    <text id="鼻橋寬度" transform="translate(503 1963)" fill="#001976" font-size="24" font-family="YuGothicUI-Regular, Yu Gothic UI"><tspan x="-48" y="0">鼻橋寬度</tspan></text>
    <text id="兩片光學中心距離" transform="translate(503 2076)" fill="#001976" font-size="24" font-family="YuGothicUI-Regular, Yu Gothic UI"><tspan x="-96" y="0">兩片光學中心距離</tspan></text>
    <text id="框面幾何中心" transform="translate(740 1760)" fill="#001976" font-size="24" font-family="YuGothicUI-Regular, Yu Gothic UI"><tspan x="0" y="0">框面幾何中心</tspan></text>
    <text id="框_面_垂_直_長_度" data-name="框
面
垂
直
長
度" transform="translate(1090 1736)" fill="#001976" font-size="24" font-family="YuGothicUI-Regular, Yu Gothic UI"><tspan x="0" y="0">框</tspan><tspan y="0" font-family="SegoeUI, Segoe UI"></tspan><tspan x="0" y="32">面</tspan><tspan y="32" font-family="SegoeUI, Segoe UI"></tspan><tspan x="0" y="64">垂</tspan><tspan y="64" font-family="SegoeUI, Segoe UI"></tspan><tspan x="0" y="96">直</tspan><tspan y="96" font-family="SegoeUI, Segoe UI"></tspan><tspan x="0" y="128">長</tspan><tspan y="128" font-family="SegoeUI, Segoe UI"></tspan><tspan x="0" y="160">度</tspan></text>
    <rect id="Rectangle_1596" data-name="Rectangle 1596" width="42.283" height="4.971" transform="translate(669.165 1769.663)" fill="#001976"/>
    <rect id="Rectangle_1597" data-name="Rectangle 1597" width="4.971" height="42.283" transform="translate(687.821 1751.007)" fill="#001976"/>
    <circle id="Ellipse_102" data-name="Ellipse 102" cx="7" cy="7" r="7" transform="translate(723 1765)" fill="#001976"/>
  </g>
</svg>
