<svg id="bluetooth" xmlns="http://www.w3.org/2000/svg" width="53.351" height="80.139" viewBox="0 0 53.351 80.139">
  <path id="Path_151" data-name="Path 151" d="M112.248,0h0A26.676,26.676,0,0,0,85.572,26.676V53.463a26.676,26.676,0,0,0,26.676,26.675h0a26.676,26.676,0,0,0,26.676-26.676V26.676A26.676,26.676,0,0,0,112.248,0Z" transform="translate(-85.572)" fill="#fff"/>
  <path id="Path_152" data-name="Path 152" d="M177.918,120.7,188.7,109.5a2.6,2.6,0,0,0,0-3.605l-12.524-13a2.6,2.6,0,0,0-4.47,1.8v19.558l-8.144-8.454a2.6,2.6,0,1,0-3.742,3.605L170.7,120.7l-10.877,11.29a2.6,2.6,0,1,0,3.742,3.605l8.144-8.454V146.7a2.6,2.6,0,0,0,4.47,1.8l12.524-13a2.6,2.6,0,0,0,0-3.605Zm-1.01-19.558,6.318,6.558-6.318,6.558V101.141Zm0,39.116V127.141l6.318,6.558Z" transform="translate(-147.589 -77.685)" fill="#145587" opacity="0.3"/>
  <path id="Path_153" data-name="Path 153" d="M177.918,101.886l10.787-11.2a2.6,2.6,0,0,0,0-3.605l-12.524-13a2.6,2.6,0,0,0-4.47,1.8V95.443l-8.144-8.454a2.6,2.6,0,1,0-3.742,3.605l10.877,11.29-10.877,11.29a2.6,2.6,0,0,0,3.742,3.605l8.144-8.454v19.558a2.6,2.6,0,0,0,4.47,1.8l12.524-13a2.6,2.6,0,0,0,0-3.605Zm-1.01-19.558,6.318,6.558-6.318,6.558V82.328Zm0,39.116V108.327l6.318,6.558Z" transform="translate(-147.589 -61.816)" fill="#001976"/>
</svg>
