<svg id="wi-fi" xmlns="http://www.w3.org/2000/svg" width="52.69" height="39.652" viewBox="0 0 52.69 39.652">
  <g id="Group_11" data-name="Group 11" transform="translate(0 0)">
    <circle id="Ellipse_6" data-name="Ellipse 6" cx="6.155" cy="6.155" r="6.155" transform="translate(20.314 27.341)" fill="#fff"/>
    <path id="Path_154" data-name="Path 154" d="M35.434,13.5c-.091-.094-.188-.178-.282-.264l-.277-.261a1.346,1.346,0,0,0-.155-.129,20.081,20.081,0,0,0-27.738.652l-.891.893L4.86,15.621a3.865,3.865,0,0,0,5.465,5.465l2.126-2.126a12.405,12.405,0,0,1,17.517,0L31.5,20.444a3.834,3.834,0,0,0,6.531-2.717,3.763,3.763,0,0,0-1.114-2.7Z" transform="translate(5.746 5.169)" fill="#fff"/>
    <path id="Path_155" data-name="Path 155" d="M51.667,13.626l-1.279-1.279c-.005-.005-.008-.013-.018-.015l-1.01-1.015a3.642,3.642,0,0,0-.573-.459A33.51,33.51,0,0,0,3.522,11.9c-.061.056-.129.094-.19.155L1.023,14.367A3.525,3.525,0,0,0,6.008,19.35l2.309-2.306a.3.3,0,0,1,.043-.051,26.454,26.454,0,0,1,36.506-.2l1.817,1.819a3.525,3.525,0,0,0,4.983-4.986Z" transform="translate(0 -2.569)" fill="#fff"/>
  </g>
</svg>
