<?xml version="1.0" encoding="utf-8"?>
<!-- Generator: Adobe Illustrator 24.2.1, SVG Export Plug-In . SVG Version: 6.00 Build 0)  -->
<svg version="1.1" id="圖層_1" xmlns="http://www.w3.org/2000/svg" xmlns:xlink="http://www.w3.org/1999/xlink" x="0px" y="0px"
	 viewBox="0 0 60 36.2" style="enable-background:new 0 0 60 36.2;" xml:space="preserve">
<style type="text/css">
	.st0{fill:#FFFFFF;}
</style>
<g id="Group_481">
	<rect x="525.9" y="655.3" class="st0" width="1" height="33.9"/>
	<rect x="553.7" y="655.3" class="st0" width="1" height="33.9"/>
	<rect x="512" y="655.3" class="st0" width="1" height="33.9"/>
	<rect x="539.8" y="655.3" class="st0" width="1" height="33.9"/>
	<rect x="537" y="658.1" class="st0" width="1" height="28.2"/>
	<rect x="564.8" y="658.1" class="st0" width="1" height="28.2"/>
	<rect x="523.1" y="658.1" class="st0" width="1" height="28.2"/>
	<rect x="550.9" y="658.1" class="st0" width="1" height="28.2"/>
	<rect x="531.4" y="658.1" class="st0" width="1" height="28.2"/>
	<rect x="559.3" y="658.1" class="st0" width="1" height="28.2"/>
	<rect x="517.5" y="658.1" class="st0" width="1" height="28.2"/>
	<rect x="545.4" y="658.1" class="st0" width="1" height="28.2"/>
	<rect x="534.2" y="658.1" class="st0" width="1" height="28.2"/>
	<rect x="562.1" y="658.1" class="st0" width="1" height="28.2"/>
	<rect x="520.3" y="658.1" class="st0" width="1" height="28.2"/>
	<rect x="548.1" y="658.1" class="st0" width="1" height="28.2"/>
	<rect x="528.7" y="658.1" class="st0" width="1" height="28.2"/>
	<rect x="556.5" y="658.1" class="st0" width="1" height="28.2"/>
	<rect x="514.7" y="658.1" class="st0" width="1" height="28.2"/>
	<rect x="542.6" y="658.1" class="st0" width="1" height="28.2"/>
	<rect x="567.6" y="655.3" class="st0" width="1" height="33.9"/>
</g>
</svg>
