<svg xmlns="http://www.w3.org/2000/svg" width="601.94" height="812.887" viewBox="0 0 601.94 812.887">
  <g id="Group_366" data-name="Group 366" transform="translate(-266.964 -77.236)">
    <g id="Group_361" data-name="Group 361" transform="translate(266.964 77.236)">
      <path id="Path_253" data-name="Path 253" d="M504.893,205.108V77.236l-22.51,109.1c-96.312,11.122-171.147,92.715-171.613,191.9h20.085A174.043,174.043,0,0,1,504.893,205.108Z" transform="translate(-204.878 -77.236)" fill="#5f5e5e"/>
      <path id="Path_254" data-name="Path 254" d="M393.671,208.775H266.964l109.789,22.657C393.606,314.7,463.707,378.636,550,386.112v-20.16A174.085,174.085,0,0,1,393.671,208.775Z" transform="translate(-266.964 109.193)" fill="#5f5e5e"/>
      <path id="Path_255" data-name="Path 255" d="M391.076,356.825V484.707L413.591,375.6A194.236,194.236,0,0,0,582.4,215.8H561.986A174.1,174.1,0,0,1,391.076,356.825Z" transform="translate(-91.061 119.147)" fill="#5f5e5e"/>
      <path id="Path_256" data-name="Path 256" d="M683.048,331.568,575.15,309.3c-3.106-98.662-79.824-178.747-177.052-187.168V142.3A174.066,174.066,0,0,1,555.174,315.522c0,5.412-.259,10.762-.747,16.046H683.048Z" transform="translate(-81.109 -13.6)" fill="#5f5e5e"/>
    </g>
    <path id="Path_257" data-name="Path 257" d="M543.646,349.691c0,9.9-43.141,17.924-96.363,17.924s-96.361-8.028-96.361-17.924,43.144-17.924,96.361-17.924S543.646,339.79,543.646,349.691Z" transform="translate(118.994 360.745)" fill="#8e8e8f"/>
    <path id="Path_258" data-name="Path 258" d="M487.042,134.043A163.677,163.677,0,1,0,650.719,297.718,163.673,163.673,0,0,0,487.042,134.043Zm0,310.421A146.747,146.747,0,1,1,633.784,297.718,146.746,146.746,0,0,1,487.042,444.464Z" transform="translate(79.937 80.512)" fill="#001976"/>
    <path id="Path_259" data-name="Path 259" d="M486.649,237.078A60.249,60.249,0,1,1,426.4,176.829,60.251,60.251,0,0,1,486.649,237.078Z" transform="translate(140.578 141.152)" fill="#001976"/>
    <circle id="Ellipse_101" data-name="Ellipse 101" cx="17.214" cy="17.214" r="17.214" transform="translate(519.102 325.125)" fill="#fff"/>
    <path id="Path_260" data-name="Path 260" d="M396.839,203.883a3.633,3.633,0,1,1-3.633-3.633A3.633,3.633,0,0,1,396.839,203.883Z" transform="translate(173.773 174.347)" fill="#fff"/>
    <g id="Group_363" data-name="Group 363" transform="translate(310.038 859.087)">
      <g id="Group_362" data-name="Group 362">
        <path id="Path_261" data-name="Path 261" d="M284.783,424.661V400.677h16.179v2.831H287.957v7.426h11.255v2.831H287.957v10.9Z" transform="translate(-284.783 -400.677)" fill="#5f5e5e"/>
        <path id="Path_262" data-name="Path 262" d="M292.573,412.33q0-4.826,2.683-7.15a8.086,8.086,0,0,1,5.463-1.931,7.792,7.792,0,0,1,5.857,2.35,8.931,8.931,0,0,1,2.275,6.486,11.512,11.512,0,0,1-1.006,5.277,7.132,7.132,0,0,1-2.93,2.985,8.533,8.533,0,0,1-4.2,1.064,7.816,7.816,0,0,1-5.9-2.34Q292.573,416.731,292.573,412.33Zm3.026,0a7.393,7.393,0,0,0,1.455,5,4.846,4.846,0,0,0,7.315-.007,7.588,7.588,0,0,0,1.455-5.088,7.181,7.181,0,0,0-1.465-4.885,4.859,4.859,0,0,0-7.305-.007A7.366,7.366,0,0,0,295.6,412.33Z" transform="translate(-273.742 -397.033)" fill="#5f5e5e"/>
        <path id="Path_263" data-name="Path 263" d="M300.722,421.018V403.642h2.649v2.635a7.16,7.16,0,0,1,1.873-2.439,3.277,3.277,0,0,1,1.89-.59,5.728,5.728,0,0,1,3.024.95l-1.013,2.732a4.242,4.242,0,0,0-2.161-.638,2.82,2.82,0,0,0-1.733.58,3.155,3.155,0,0,0-1.095,1.612,11.434,11.434,0,0,0-.491,3.437v9.1Z" transform="translate(-262.193 -397.033)" fill="#5f5e5e"/>
        <path id="Path_264" data-name="Path 264" d="M321.066,414.653l2.9.375a7.518,7.518,0,0,1-2.429,4.69,7.086,7.086,0,0,1-4.8,1.692,7.462,7.462,0,0,1-5.734-2.33q-2.172-2.335-2.168-6.684a12.112,12.112,0,0,1,.931-4.927,6.508,6.508,0,0,1,2.84-3.164,8.413,8.413,0,0,1,4.146-1.056,7.214,7.214,0,0,1,4.632,1.434,6.561,6.561,0,0,1,2.306,4.063l-2.862.442a4.764,4.764,0,0,0-1.45-2.635,3.746,3.746,0,0,0-2.509-.882,4.572,4.572,0,0,0-3.616,1.6q-1.392,1.6-1.39,5.047,0,3.5,1.342,5.088a4.358,4.358,0,0,0,3.5,1.588,4.124,4.124,0,0,0,2.9-1.066A5.267,5.267,0,0,0,321.066,414.653Z" transform="translate(-250.701 -397.033)" fill="#5f5e5e"/>
        <path id="Path_265" data-name="Path 265" d="M316.1,424.661V400.677h2.947v23.984Z" transform="translate(-240.391 -400.677)" fill="#5f5e5e"/>
        <path id="Path_266" data-name="Path 266" d="M331.681,415.421l3.046.375a7.432,7.432,0,0,1-2.669,4.141,8.021,8.021,0,0,1-4.975,1.472,7.94,7.94,0,0,1-6.043-2.347,9.174,9.174,0,0,1-2.234-6.587,9.6,9.6,0,0,1,2.258-6.8,7.641,7.641,0,0,1,5.857-2.422,7.428,7.428,0,0,1,5.693,2.371,9.437,9.437,0,0,1,2.209,6.677c0,.174,0,.438-.017.786H321.849a6.676,6.676,0,0,0,1.62,4.385,4.815,4.815,0,0,0,3.631,1.523,4.487,4.487,0,0,0,2.765-.853A5.637,5.637,0,0,0,331.681,415.421Zm-9.669-4.762h9.7a5.9,5.9,0,0,0-1.112-3.288,4.512,4.512,0,0,0-3.65-1.7,4.683,4.683,0,0,0-3.411,1.359A5.387,5.387,0,0,0,322.011,410.659Z" transform="translate(-236.563 -397.033)" fill="#5f5e5e"/>
        <path id="Path_267" data-name="Path 267" d="M338.843,418.873a10.937,10.937,0,0,1-3.147,1.963,9.11,9.11,0,0,1-3.249.573,6.315,6.315,0,0,1-4.4-1.4,4.615,4.615,0,0,1-1.54-3.578,4.736,4.736,0,0,1,.583-2.33,4.815,4.815,0,0,1,1.52-1.695,7.077,7.077,0,0,1,2.118-.962,21.2,21.2,0,0,1,2.618-.445,26.97,26.97,0,0,0,5.253-1.013c.01-.4.017-.66.017-.769a3.253,3.253,0,0,0-.836-2.536,4.929,4.929,0,0,0-3.353-1,5.2,5.2,0,0,0-3.068.728,4.451,4.451,0,0,0-1.465,2.577l-2.879-.392a7.117,7.117,0,0,1,1.291-2.985,5.683,5.683,0,0,1,2.6-1.753,11.611,11.611,0,0,1,3.943-.614,10.4,10.4,0,0,1,3.616.525,4.768,4.768,0,0,1,2.045,1.317,4.669,4.669,0,0,1,.916,2,16.765,16.765,0,0,1,.147,2.717v3.926a42.213,42.213,0,0,0,.186,5.192,6.594,6.594,0,0,0,.745,2.089h-3.075A6.26,6.26,0,0,1,338.843,418.873ZM338.6,412.3a21.539,21.539,0,0,1-4.81,1.112,10.961,10.961,0,0,0-2.567.59,2.515,2.515,0,0,0-1.571,2.357,2.5,2.5,0,0,0,.892,1.96,3.823,3.823,0,0,0,2.608.788,6.077,6.077,0,0,0,3.026-.745,4.56,4.56,0,0,0,1.946-2.038,7.1,7.1,0,0,0,.476-2.944Z" transform="translate(-225.646 -397.033)" fill="#5f5e5e"/>
        <path id="Path_268" data-name="Path 268" d="M334.617,421.018V403.642h2.649v2.635a7.159,7.159,0,0,1,1.873-2.439,3.276,3.276,0,0,1,1.89-.59,5.728,5.728,0,0,1,3.024.95l-1.013,2.732a4.242,4.242,0,0,0-2.161-.638,2.82,2.82,0,0,0-1.733.58,3.155,3.155,0,0,0-1.1,1.612,11.437,11.437,0,0,0-.491,3.437v9.1Z" transform="translate(-214.154 -397.033)" fill="#5f5e5e"/>
        <path id="Path_269" data-name="Path 269" d="M338.914,412.566v-3.355h3.355v3.355a5.965,5.965,0,0,1-.655,2.985,4.285,4.285,0,0,1-2.079,1.76l-.817-1.262a2.789,2.789,0,0,0,1.375-1.2,5.171,5.171,0,0,0,.491-2.282Z" transform="translate(-208.341 -388.582)" fill="#5f5e5e"/>
        <path id="Path_270" data-name="Path 270" d="M346.407,424.661V400.677h16.179v2.831H349.581v7.426h11.255v2.831H349.581v10.9Z" transform="translate(-197.444 -400.677)" fill="#5f5e5e"/>
        <path id="Path_271" data-name="Path 271" d="M354.2,412.33q0-4.826,2.683-7.15a8.086,8.086,0,0,1,5.463-1.931,7.792,7.792,0,0,1,5.857,2.35,8.931,8.931,0,0,1,2.275,6.486,11.512,11.512,0,0,1-1.006,5.277,7.132,7.132,0,0,1-2.93,2.985,8.534,8.534,0,0,1-4.2,1.064,7.815,7.815,0,0,1-5.9-2.34Q354.2,416.731,354.2,412.33Zm3.026,0a7.392,7.392,0,0,0,1.455,5,4.846,4.846,0,0,0,7.315-.007,7.587,7.587,0,0,0,1.455-5.088,7.181,7.181,0,0,0-1.465-4.885,4.859,4.859,0,0,0-7.305-.007A7.366,7.366,0,0,0,357.223,412.33Z" transform="translate(-186.403 -397.033)" fill="#5f5e5e"/>
        <path id="Path_272" data-name="Path 272" d="M362.346,421.018V403.642H365v2.635a7.159,7.159,0,0,1,1.873-2.439,3.276,3.276,0,0,1,1.89-.59,5.728,5.728,0,0,1,3.024.95l-1.013,2.732a4.241,4.241,0,0,0-2.161-.638,2.82,2.82,0,0,0-1.733.58,3.155,3.155,0,0,0-1.1,1.612,11.437,11.437,0,0,0-.491,3.437v9.1Z" transform="translate(-174.854 -397.033)" fill="#5f5e5e"/>
        <path id="Path_273" data-name="Path 273" d="M383.295,415.421l3.043.375a7.416,7.416,0,0,1-2.666,4.141,8.021,8.021,0,0,1-4.975,1.472,7.937,7.937,0,0,1-6.043-2.347,9.175,9.175,0,0,1-2.233-6.587,9.6,9.6,0,0,1,2.258-6.8,7.641,7.641,0,0,1,5.857-2.422,7.428,7.428,0,0,1,5.693,2.371,9.437,9.437,0,0,1,2.209,6.677c0,.174-.007.438-.017.786H373.463a6.676,6.676,0,0,0,1.62,4.385,4.815,4.815,0,0,0,3.631,1.523,4.487,4.487,0,0,0,2.765-.853A5.637,5.637,0,0,0,383.295,415.421Zm-9.669-4.762h9.7a5.9,5.9,0,0,0-1.112-3.288,4.512,4.512,0,0,0-3.65-1.7,4.684,4.684,0,0,0-3.411,1.359A5.387,5.387,0,0,0,373.625,410.659Z" transform="translate(-163.41 -397.033)" fill="#5f5e5e"/>
        <path id="Path_274" data-name="Path 274" d="M390.457,418.873a10.948,10.948,0,0,1-3.15,1.963,9.088,9.088,0,0,1-3.246.573,6.326,6.326,0,0,1-4.4-1.4,4.621,4.621,0,0,1-1.537-3.578,4.76,4.76,0,0,1,.58-2.33,4.82,4.82,0,0,1,1.523-1.695,7.05,7.05,0,0,1,2.118-.962A21.11,21.11,0,0,1,384.96,411a26.971,26.971,0,0,0,5.253-1.013q.014-.605.015-.769a3.253,3.253,0,0,0-.834-2.536,4.929,4.929,0,0,0-3.353-1,5.2,5.2,0,0,0-3.068.728,4.438,4.438,0,0,0-1.465,2.577l-2.879-.392a7.117,7.117,0,0,1,1.291-2.985,5.688,5.688,0,0,1,2.6-1.753,11.636,11.636,0,0,1,3.945-.614,10.388,10.388,0,0,1,3.614.525,4.762,4.762,0,0,1,2.047,1.317,4.637,4.637,0,0,1,.914,2,16.491,16.491,0,0,1,.147,2.717v3.926a41.49,41.49,0,0,0,.189,5.192,6.593,6.593,0,0,0,.744,2.089h-3.075A6.206,6.206,0,0,1,390.457,418.873Zm-.244-6.577a21.538,21.538,0,0,1-4.81,1.112,11.018,11.018,0,0,0-2.57.59,2.546,2.546,0,0,0-1.16.957,2.593,2.593,0,0,0,.483,3.36,3.823,3.823,0,0,0,2.608.788,6.084,6.084,0,0,0,3.026-.745,4.573,4.573,0,0,0,1.946-2.038,7.1,7.1,0,0,0,.476-2.944Z" transform="translate(-152.494 -397.033)" fill="#5f5e5e"/>
        <path id="Path_275" data-name="Path 275" d="M385.756,415.83l2.913-.457a4.083,4.083,0,0,0,1.366,2.683,4.767,4.767,0,0,0,3.133.933,4.6,4.6,0,0,0,3.012-.827,2.48,2.48,0,0,0,.981-1.941,1.791,1.791,0,0,0-.868-1.569,12.69,12.69,0,0,0-3.01-1,27.8,27.8,0,0,1-4.491-1.414,4.294,4.294,0,0,1-2.545-3.986,4.454,4.454,0,0,1,.534-2.149,4.758,4.758,0,0,1,1.446-1.646,6.081,6.081,0,0,1,1.873-.858,8.911,8.911,0,0,1,2.545-.353,10.065,10.065,0,0,1,3.59.59,4.866,4.866,0,0,1,2.284,1.6,6.252,6.252,0,0,1,1.013,2.693l-2.879.392a3.139,3.139,0,0,0-1.139-2.093,4.148,4.148,0,0,0-2.657-.754,4.83,4.83,0,0,0-2.9.67,1.964,1.964,0,0,0-.868,1.574,1.63,1.63,0,0,0,.36,1.03,2.616,2.616,0,0,0,1.129.786q.442.163,2.6.752a36.052,36.052,0,0,1,4.361,1.366,4.435,4.435,0,0,1,1.939,1.545,4.329,4.329,0,0,1,.7,2.521,4.961,4.961,0,0,1-.858,2.773,5.547,5.547,0,0,1-2.48,2.014,9.035,9.035,0,0,1-3.665.711A8.164,8.164,0,0,1,388.023,420,6.544,6.544,0,0,1,385.756,415.83Z" transform="translate(-141.675 -397.033)" fill="#5f5e5e"/>
        <path id="Path_276" data-name="Path 276" d="M394.021,427.478l-.326-2.765a6.563,6.563,0,0,0,1.685.261,3.246,3.246,0,0,0,1.571-.326,2.711,2.711,0,0,0,.964-.916,14.441,14.441,0,0,0,.9-2.192c.053-.162.14-.4.261-.72l-6.594-17.407h3.174l3.616,10.061q.7,1.918,1.259,4.025a39.7,39.7,0,0,1,1.211-3.957l3.713-10.128H408.4l-6.609,17.67a34.4,34.4,0,0,1-1.653,3.943,5.769,5.769,0,0,1-1.8,2.132,4.243,4.243,0,0,1-2.422.682A5.925,5.925,0,0,1,394.021,427.478Z" transform="translate(-132.139 -396.802)" fill="#5f5e5e"/>
        <path id="Path_277" data-name="Path 277" d="M399.511,412.566v-3.355h3.353v3.355a5.965,5.965,0,0,1-.655,2.985,4.274,4.274,0,0,1-2.079,1.76l-.817-1.262a2.789,2.789,0,0,0,1.375-1.2,5.172,5.172,0,0,0,.491-2.282Z" transform="translate(-122.461 -388.582)" fill="#5f5e5e"/>
        <path id="Path_278" data-name="Path 278" d="M407,424.661V400.677h16.179v2.831H410.176v7.426h11.255v2.831H410.176v10.9Z" transform="translate(-111.563 -400.677)" fill="#5f5e5e"/>
        <path id="Path_279" data-name="Path 279" d="M414.792,412.33q0-4.826,2.683-7.15a8.086,8.086,0,0,1,5.463-1.931,7.792,7.792,0,0,1,5.857,2.35,8.93,8.93,0,0,1,2.275,6.486,11.513,11.513,0,0,1-1.006,5.277,7.1,7.1,0,0,1-2.93,2.985,8.527,8.527,0,0,1-4.2,1.064,7.815,7.815,0,0,1-5.9-2.34Q414.792,416.731,414.792,412.33Zm3.026,0a7.405,7.405,0,0,0,1.455,5,4.846,4.846,0,0,0,7.315-.007,7.588,7.588,0,0,0,1.455-5.088,7.181,7.181,0,0,0-1.465-4.885,4.859,4.859,0,0,0-7.305-.007A7.379,7.379,0,0,0,417.818,412.33Z" transform="translate(-100.522 -397.033)" fill="#5f5e5e"/>
        <path id="Path_280" data-name="Path 280" d="M422.941,421.018V403.642h2.649v2.635a7.159,7.159,0,0,1,1.874-2.439,3.282,3.282,0,0,1,1.89-.59,5.736,5.736,0,0,1,3.026.95l-1.013,2.732a4.241,4.241,0,0,0-2.161-.638,2.827,2.827,0,0,0-1.736.58,3.169,3.169,0,0,0-1.1,1.612,11.513,11.513,0,0,0-.491,3.437v9.1Z" transform="translate(-88.973 -397.033)" fill="#5f5e5e"/>
        <path id="Path_281" data-name="Path 281" d="M434.148,424.661h-2.734V400.677h2.947v8.555a5.829,5.829,0,0,1,4.762-2.34,7.28,7.28,0,0,1,3.031.648,6.164,6.164,0,0,1,2.357,1.815,8.817,8.817,0,0,1,1.45,2.823,11.664,11.664,0,0,1,.522,3.532q0,4.467-2.209,6.906a6.905,6.905,0,0,1-5.3,2.437,5.526,5.526,0,0,1-4.825-2.57Zm-.034-8.821a8.991,8.991,0,0,0,.851,4.515,4.2,4.2,0,0,0,7.1.6,7.6,7.6,0,0,0,1.407-5,7.761,7.761,0,0,0-1.346-5.023,4.124,4.124,0,0,0-3.266-1.62,4.24,4.24,0,0,0-3.338,1.675A7.382,7.382,0,0,0,434.114,415.841Z" transform="translate(-76.964 -400.677)" fill="#5f5e5e"/>
        <path id="Path_282" data-name="Path 282" d="M451.6,415.421l3.043.375a7.432,7.432,0,0,1-2.669,4.141,9.035,9.035,0,0,1-11.018-.875,9.173,9.173,0,0,1-2.231-6.587,9.6,9.6,0,0,1,2.255-6.8,7.645,7.645,0,0,1,5.857-2.422,7.437,7.437,0,0,1,5.7,2.371,9.437,9.437,0,0,1,2.209,6.677c0,.174-.007.438-.017.786H441.766a6.676,6.676,0,0,0,1.62,4.385,4.822,4.822,0,0,0,3.631,1.523,4.494,4.494,0,0,0,2.768-.853A5.67,5.67,0,0,0,451.6,415.421Zm-9.669-4.762h9.7a5.9,5.9,0,0,0-1.112-3.288,4.507,4.507,0,0,0-3.648-1.7,4.676,4.676,0,0,0-3.411,1.359A5.376,5.376,0,0,0,441.93,410.659Z" transform="translate(-66.602 -397.033)" fill="#5f5e5e"/>
        <path id="Path_283" data-name="Path 283" d="M454.219,421.712l.425,2.6a10.951,10.951,0,0,1-2.224.261,5.033,5.033,0,0,1-2.487-.508,2.816,2.816,0,0,1-1.242-1.332,10.466,10.466,0,0,1-.363-3.476v-10h-2.159v-2.289h2.159v-4.3l2.93-1.769v6.072h2.961v2.289h-2.961v10.162a5.09,5.09,0,0,0,.157,1.617,1.213,1.213,0,0,0,.505.575,1.985,1.985,0,0,0,1.008.213A9.451,9.451,0,0,0,454.219,421.712Z" transform="translate(-56.052 -400.362)" fill="#5f5e5e"/>
        <path id="Path_284" data-name="Path 284" d="M458.071,421.712l.423,2.6a10.938,10.938,0,0,1-2.226.261,5.022,5.022,0,0,1-2.485-.508,2.834,2.834,0,0,1-1.245-1.332,10.581,10.581,0,0,1-.358-3.476v-10h-2.159v-2.289h2.159v-4.3l2.927-1.769v6.072h2.964v2.289h-2.964v10.162a5.109,5.109,0,0,0,.155,1.617,1.231,1.231,0,0,0,.508.575,1.977,1.977,0,0,0,1.006.213A9.512,9.512,0,0,0,458.071,421.712Z" transform="translate(-50.592 -400.362)" fill="#5f5e5e"/>
        <path id="Path_285" data-name="Path 285" d="M467.011,415.421l3.043.375a7.432,7.432,0,0,1-2.669,4.141,9.032,9.032,0,0,1-11.016-.875,9.164,9.164,0,0,1-2.233-6.587,9.6,9.6,0,0,1,2.255-6.8,7.645,7.645,0,0,1,5.857-2.422,7.436,7.436,0,0,1,5.7,2.371,9.437,9.437,0,0,1,2.209,6.677c0,.174-.007.438-.017.786H457.179a6.662,6.662,0,0,0,1.617,4.385,4.822,4.822,0,0,0,3.631,1.523,4.49,4.49,0,0,0,2.768-.853A5.671,5.671,0,0,0,467.011,415.421Zm-9.669-4.762h9.7a5.914,5.914,0,0,0-1.112-3.288,4.515,4.515,0,0,0-3.65-1.7,4.68,4.68,0,0,0-3.411,1.359A5.376,5.376,0,0,0,457.341,410.659Z" transform="translate(-44.76 -397.033)" fill="#5f5e5e"/>
        <path id="Path_286" data-name="Path 286" d="M462.237,421.018V403.642h2.649v2.635a7.158,7.158,0,0,1,1.873-2.439,3.276,3.276,0,0,1,1.89-.59,5.736,5.736,0,0,1,3.026.95l-1.013,2.732a4.242,4.242,0,0,0-2.161-.638,2.822,2.822,0,0,0-1.736.58,3.155,3.155,0,0,0-1.1,1.612,11.436,11.436,0,0,0-.491,3.437v9.1Z" transform="translate(-33.279 -397.033)" fill="#5f5e5e"/>
        <path id="Path_287" data-name="Path 287" d="M476.59,420.786l-6.611-17.375h3.111l3.73,10.406q.606,1.682,1.112,3.5.392-1.374,1.1-3.3l3.858-10.6h3.026l-6.575,17.375Z" transform="translate(-22.306 -396.802)" fill="#5f5e5e"/>
        <path id="Path_288" data-name="Path 288" d="M477.654,404.061v-3.384H480.6v3.384Zm0,20.6V407.286H480.6v17.375Z" transform="translate(-11.428 -400.677)" fill="#5f5e5e"/>
        <path id="Path_289" data-name="Path 289" d="M480.24,415.83l2.913-.457a4.082,4.082,0,0,0,1.366,2.683,4.762,4.762,0,0,0,3.133.933,4.614,4.614,0,0,0,3.012-.827,2.48,2.48,0,0,0,.981-1.941,1.791,1.791,0,0,0-.868-1.569,12.69,12.69,0,0,0-3.009-1,27.718,27.718,0,0,1-4.491-1.414,4.294,4.294,0,0,1-2.545-3.986,4.479,4.479,0,0,1,.532-2.149,4.789,4.789,0,0,1,1.448-1.646,6.055,6.055,0,0,1,1.873-.858,8.911,8.911,0,0,1,2.546-.353,10.084,10.084,0,0,1,3.59.59,4.877,4.877,0,0,1,2.284,1.6,6.218,6.218,0,0,1,1.01,2.693l-2.877.392A3.149,3.149,0,0,0,490,406.424a4.148,4.148,0,0,0-2.657-.754,4.843,4.843,0,0,0-2.9.67,1.961,1.961,0,0,0-.865,1.574,1.63,1.63,0,0,0,.36,1.03,2.608,2.608,0,0,0,1.126.786q.442.163,2.6.752a35.912,35.912,0,0,1,4.361,1.366,4.442,4.442,0,0,1,1.941,1.545,4.346,4.346,0,0,1,.7,2.521,4.944,4.944,0,0,1-.861,2.773,5.553,5.553,0,0,1-2.478,2.014,9.039,9.039,0,0,1-3.667.711A8.156,8.156,0,0,1,482.507,420,6.522,6.522,0,0,1,480.24,415.83Z" transform="translate(-7.763 -397.033)" fill="#5f5e5e"/>
        <path id="Path_290" data-name="Path 290" d="M499.084,420.786v-2.553a6.364,6.364,0,0,1-5.514,2.944,7.048,7.048,0,0,1-2.872-.587,4.79,4.79,0,0,1-1.98-1.482,5.529,5.529,0,0,1-.909-2.185,15.1,15.1,0,0,1-.179-2.748V403.411h2.947v9.635a17.161,17.161,0,0,0,.179,3.111,3.065,3.065,0,0,0,1.177,1.823,3.643,3.643,0,0,0,2.224.662,4.849,4.849,0,0,0,2.487-.679,3.76,3.76,0,0,0,1.644-1.849,9.212,9.212,0,0,0,.483-3.394v-9.309h2.944v17.375Z" transform="translate(2.712 -396.802)" fill="#5f5e5e"/>
        <path id="Path_291" data-name="Path 291" d="M507.292,418.873a10.982,10.982,0,0,1-3.15,1.963,9.1,9.1,0,0,1-3.249.573,6.32,6.32,0,0,1-4.4-1.4,4.615,4.615,0,0,1-1.54-3.578,4.761,4.761,0,0,1,.58-2.33,4.821,4.821,0,0,1,1.523-1.695,7.076,7.076,0,0,1,2.117-.962,21.2,21.2,0,0,1,2.618-.445,26.971,26.971,0,0,0,5.253-1.013c.01-.4.017-.66.017-.769a3.244,3.244,0,0,0-.836-2.536,4.921,4.921,0,0,0-3.353-1,5.2,5.2,0,0,0-3.068.728,4.437,4.437,0,0,0-1.465,2.577l-2.879-.392a7.118,7.118,0,0,1,1.291-2.985,5.7,5.7,0,0,1,2.6-1.753,11.636,11.636,0,0,1,3.945-.614,10.369,10.369,0,0,1,3.614.525,4.763,4.763,0,0,1,2.047,1.317,4.64,4.64,0,0,1,.916,2,16.849,16.849,0,0,1,.145,2.717v3.926a41.348,41.348,0,0,0,.191,5.192,6.533,6.533,0,0,0,.742,2.089h-3.075A6.252,6.252,0,0,1,507.292,418.873Zm-.247-6.577a21.469,21.469,0,0,1-4.81,1.112,11.019,11.019,0,0,0-2.57.59,2.518,2.518,0,0,0-1.569,2.357,2.5,2.5,0,0,0,.892,1.96,3.828,3.828,0,0,0,2.608.788,6.077,6.077,0,0,0,3.026-.745,4.591,4.591,0,0,0,1.948-2.038,7.1,7.1,0,0,0,.474-2.944Z" transform="translate(13.091 -397.033)" fill="#5f5e5e"/>
        <path id="Path_292" data-name="Path 292" d="M503.049,424.661V400.677H506v23.984Z" transform="translate(24.564 -400.677)" fill="#5f5e5e"/>
      </g>
    </g>
    <g id="Group_364" data-name="Group 364" transform="translate(429.203 764.416)">
      <path id="Path_293" data-name="Path 293" d="M334.08,369.331v-7.818h14.7v7.818Zm0,47.565V376.773h14.7V416.9Z" transform="translate(-334.08 -361.513)" fill="#001976"/>
    </g>
    <g id="Group_365" data-name="Group 365" transform="translate(449.641 763.43)">
      <path id="Path_294" data-name="Path 294" d="M342.535,416.9V361.512h19.848a45.6,45.6,0,0,1,8,.527,15.38,15.38,0,0,1,6.5,2.589,13.429,13.429,0,0,1,4.218,5.347,17.73,17.73,0,0,1,1.6,7.557,17.544,17.544,0,0,1-4.269,11.956q-4.271,4.9-15.434,4.89H349.5V416.9Zm6.964-29.053h13.6q6.748,0,9.585-2.645a9.674,9.674,0,0,0,2.836-7.443,10.385,10.385,0,0,0-1.668-5.949,7.827,7.827,0,0,0-4.4-3.268,28.2,28.2,0,0,0-6.5-.493H349.5Z" transform="translate(-342.535 -360.528)" fill="#5f5e5e"/>
      <path id="Path_295" data-name="Path 295" d="M359.812,390.5q0-13.79,7.037-21.594t18.161-7.8a24.225,24.225,0,0,1,13.136,3.665,23.539,23.539,0,0,1,8.92,10.22,34.668,34.668,0,0,1,3.068,14.866,34.062,34.062,0,0,1-3.23,15.074A22.739,22.739,0,0,1,397.751,415a25.127,25.127,0,0,1-12.778,3.418,23.813,23.813,0,0,1-22.145-14.09A32.643,32.643,0,0,1,359.812,390.5Zm7.179.114q0,10.008,5.115,15.773a17.234,17.234,0,0,0,25.771-.058q5.076-5.816,5.079-16.51a29.644,29.644,0,0,0-2.173-11.8,17.327,17.327,0,0,0-6.353-7.822,16.583,16.583,0,0,0-9.386-2.777,17.334,17.334,0,0,0-12.722,5.347Q366.991,378.106,366.991,390.613Z" transform="translate(-318.048 -361.105)" fill="#5f5e5e"/>
      <path id="Path_296" data-name="Path 296" d="M381.232,399.657l6.568-.6a15.809,15.809,0,0,0,2.173,6.819,11.963,11.963,0,0,0,5.294,4.305,19.177,19.177,0,0,0,8.074,1.644,18.492,18.492,0,0,0,7.037-1.247,9.807,9.807,0,0,0,4.54-3.418,8.214,8.214,0,0,0,1.489-4.743,7.452,7.452,0,0,0-1.436-4.552,10.615,10.615,0,0,0-4.738-3.268,89.357,89.357,0,0,0-9.367-2.7,46.166,46.166,0,0,1-10.157-3.457,14.5,14.5,0,0,1-5.618-5.158,13.13,13.13,0,0,1-1.849-6.894,14.611,14.611,0,0,1,2.263-7.842,14.178,14.178,0,0,1,6.6-5.533,23.956,23.956,0,0,1,9.655-1.888,25.269,25.269,0,0,1,10.319,1.982,15.07,15.07,0,0,1,6.872,5.835,17.423,17.423,0,0,1,2.584,8.729l-6.674.532q-.54-5.254-3.643-7.936t-9.171-2.683q-6.316,0-9.205,2.439a7.435,7.435,0,0,0-2.891,5.872A6.452,6.452,0,0,0,392,380.805q2.009,1.925,10.5,3.945a66.917,66.917,0,0,1,11.649,3.534,16.149,16.149,0,0,1,6.783,5.647,14.315,14.315,0,0,1,2.19,7.878,15.631,15.631,0,0,1-2.405,8.33,16.088,16.088,0,0,1-6.909,6.084,23.058,23.058,0,0,1-10.141,2.171A28.9,28.9,0,0,1,391.7,416.2a16.994,16.994,0,0,1-7.576-6.592A19.391,19.391,0,0,1,381.232,399.657Z" transform="translate(-287.69 -361.082)" fill="#5f5e5e"/>
      <path id="Path_297" data-name="Path 297" d="M400.856,416.9V361.512h6.962V416.9Z" transform="translate(-259.877 -360.528)" fill="#5f5e5e"/>
      <path id="Path_298" data-name="Path 298" d="M422.387,416.9V368.046H405.053v-6.534h41.706v6.534H429.349V416.9Z" transform="translate(-253.929 -360.528)" fill="#5f5e5e"/>
      <path id="Path_299" data-name="Path 299" d="M423.621,416.9V361.512h6.964V416.9Z" transform="translate(-227.613 -360.528)" fill="#5f5e5e"/>
      <path id="Path_300" data-name="Path 300" d="M428.575,390.5q0-13.79,7.034-21.594t18.161-7.8a24.233,24.233,0,0,1,13.138,3.665,23.534,23.534,0,0,1,8.917,10.22,34.632,34.632,0,0,1,3.07,14.866,34.093,34.093,0,0,1-3.23,15.074A22.767,22.767,0,0,1,466.514,415a25.135,25.135,0,0,1-12.78,3.418,23.813,23.813,0,0,1-22.145-14.09A32.64,32.64,0,0,1,428.575,390.5Zm7.179.114q0,10.008,5.113,15.773a17.234,17.234,0,0,0,25.771-.058q5.08-5.816,5.079-16.51a29.6,29.6,0,0,0-2.173-11.8,17.324,17.324,0,0,0-6.35-7.822,16.594,16.594,0,0,0-9.386-2.777,17.334,17.334,0,0,0-12.722,5.347Q435.751,378.106,435.754,390.613Z" transform="translate(-220.591 -361.105)" fill="#5f5e5e"/>
      <path id="Path_301" data-name="Path 301" d="M450.945,416.9V361.512h7.143L485.725,405V361.512H492.4V416.9h-7.143l-27.637-43.523V416.9Z" transform="translate(-188.886 -360.528)" fill="#5f5e5e"/>
    </g>
  </g>
</svg>
