<svg xmlns="http://www.w3.org/2000/svg" width="329" height="58.204" viewBox="0 0 329 58.204">
  <g id="Group_369" data-name="Group 369" transform="translate(-334.08 -361.105)">
    <g id="Group_367" data-name="Group 367" transform="translate(334.08 362.107)">
      <path id="Path_302" data-name="Path 302" d="M334.08,369.452v-7.939h14.933v7.939Zm0,48.306V377.011h14.933v40.747Z" transform="translate(-334.08 -361.513)" fill="#fff"/>
    </g>
    <g id="Group_368" data-name="Group 368" transform="translate(354.837 361.105)">
      <path id="Path_303" data-name="Path 303" d="M342.535,417.76V361.512h20.158a46.3,46.3,0,0,1,8.128.535,15.619,15.619,0,0,1,6.6,2.629,13.637,13.637,0,0,1,4.284,5.43,18.006,18.006,0,0,1,1.62,7.674,17.817,17.817,0,0,1-4.335,12.142q-4.338,4.971-15.675,4.966h-13.7v22.87Zm7.073-29.506h13.811q6.853,0,9.734-2.686t2.88-7.559a10.546,10.546,0,0,0-1.694-6.042,7.949,7.949,0,0,0-4.465-3.319,28.637,28.637,0,0,0-6.6-.5H349.608Z" transform="translate(-342.535 -360.513)" fill="#fff"/>
      <path id="Path_304" data-name="Path 304" d="M359.812,390.957q0-14,7.146-21.93T385.4,361.1a24.6,24.6,0,0,1,13.34,3.722,23.9,23.9,0,0,1,9.059,10.379,35.209,35.209,0,0,1,3.115,15.1,34.592,34.592,0,0,1-3.28,15.309,23.092,23.092,0,0,1-9.294,10.225,25.518,25.518,0,0,1-12.977,3.471A24.184,24.184,0,0,1,362.876,405,33.151,33.151,0,0,1,359.812,390.957Zm7.291.115q0,10.163,5.195,16.018a17.5,17.5,0,0,0,26.172-.059q5.155-5.906,5.158-16.767a30.108,30.108,0,0,0-2.207-11.988,17.6,17.6,0,0,0-6.452-7.944,16.841,16.841,0,0,0-9.533-2.821,17.6,17.6,0,0,0-12.92,5.43Q367.1,378.371,367.1,391.073Z" transform="translate(-317.398 -361.105)" fill="#fff"/>
      <path id="Path_305" data-name="Path 305" d="M381.232,400.258l6.67-.614a16.055,16.055,0,0,0,2.207,6.925,12.151,12.151,0,0,0,5.376,4.372,19.476,19.476,0,0,0,8.2,1.669,18.778,18.778,0,0,0,7.146-1.267,9.96,9.96,0,0,0,4.61-3.471,8.342,8.342,0,0,0,1.512-4.817,7.568,7.568,0,0,0-1.458-4.623,10.781,10.781,0,0,0-4.812-3.319,90.752,90.752,0,0,0-9.513-2.742q-7.365-1.86-10.316-3.511a14.726,14.726,0,0,1-5.705-5.239,13.335,13.335,0,0,1-1.878-7,14.839,14.839,0,0,1,2.3-7.964,14.4,14.4,0,0,1,6.707-5.619,24.331,24.331,0,0,1,9.805-1.917,25.662,25.662,0,0,1,10.48,2.013,15.3,15.3,0,0,1,6.979,5.926,17.7,17.7,0,0,1,2.624,8.865l-6.778.54q-.549-5.336-3.7-8.06t-9.314-2.725q-6.415,0-9.348,2.477a7.551,7.551,0,0,0-2.936,5.963,6.552,6.552,0,0,0,2.079,4.991q2.04,1.955,10.659,4.006a67.956,67.956,0,0,1,11.83,3.589,16.4,16.4,0,0,1,6.889,5.735,14.539,14.539,0,0,1,2.224,8,15.875,15.875,0,0,1-2.443,8.46,16.339,16.339,0,0,1-7.016,6.179,23.417,23.417,0,0,1-10.3,2.2,29.349,29.349,0,0,1-12.154-2.224,17.259,17.259,0,0,1-7.694-6.695A19.693,19.693,0,0,1,381.232,400.258Z" transform="translate(-286.233 -361.082)" fill="#fff"/>
      <path id="Path_306" data-name="Path 306" d="M400.856,417.76V361.512h7.07V417.76Z" transform="translate(-257.681 -360.513)" fill="#fff"/>
      <path id="Path_307" data-name="Path 307" d="M422.657,417.76V368.148h-17.6v-6.636h42.355v6.636H429.728V417.76Z" transform="translate(-251.574 -360.513)" fill="#fff"/>
      <path id="Path_308" data-name="Path 308" d="M423.621,417.76V361.512h7.073V417.76Z" transform="translate(-224.559 -360.513)" fill="#fff"/>
      <path id="Path_309" data-name="Path 309" d="M428.575,390.957q0-14,7.144-21.93t18.444-7.922a24.61,24.61,0,0,1,13.343,3.722,23.9,23.9,0,0,1,9.056,10.379,35.173,35.173,0,0,1,3.118,15.1,34.625,34.625,0,0,1-3.28,15.309,23.122,23.122,0,0,1-9.294,10.225,25.527,25.527,0,0,1-12.979,3.471A24.184,24.184,0,0,1,431.636,405,33.15,33.15,0,0,1,428.575,390.957Zm7.291.115q0,10.163,5.192,16.018a17.5,17.5,0,0,0,26.172-.059q5.159-5.906,5.158-16.767a30.064,30.064,0,0,0-2.207-11.988,17.593,17.593,0,0,0-6.449-7.944,16.852,16.852,0,0,0-9.533-2.821,17.6,17.6,0,0,0-12.92,5.43Q435.862,378.371,435.866,391.073Z" transform="translate(-217.351 -361.105)" fill="#fff"/>
      <path id="Path_310" data-name="Path 310" d="M450.945,417.76V361.512H458.2l28.068,44.162V361.512h6.781V417.76h-7.254l-28.068-44.2v44.2Z" transform="translate(-184.804 -360.513)" fill="#fff"/>
    </g>
  </g>
</svg>
