<svg xmlns="http://www.w3.org/2000/svg" width="635" height="222" viewBox="0 0 635 222">
  <g id="Group_485" data-name="Group 485" transform="translate(-281 -2732)">
    <text id="R" transform="translate(304 2935)" fill="#fff" font-size="66" font-family="SourceHanSansTC-Bold, Source Han Sans TC" font-weight="700"><tspan x="-22.506" y="0">R</tspan></text>
    <text id="L" transform="translate(896 2935)" fill="#fff" font-size="66" font-family="SourceHanSansTC-Bold, Source Han Sans TC" font-weight="700"><tspan x="-19.074" y="0">L</tspan></text>
    <path id="Path_317" data-name="Path 317" d="M557.482,298.423c-79.063-19.734-159.252-26.254-240.1-26.365-80.8-.111-160.956,6.192-239.478,25.325v51.94c9.728-5.3,19.054-10.874,28.788-15.608,47.8-23.247,98.714-35.166,151.3-40.557a567.078,567.078,0,0,1,92.756-1.76,533.527,533.527,0,0,1,86.61,12.191c36.025,8.251,70.674,20.248,102.985,38.453,5.708,3.217,11.246,6.739,17.143,10.289Z" transform="translate(282.098 2459.943)" fill="#fff"/>
  </g>
</svg>
